<svg xmlns="http://www.w3.org/2000/svg" viewBox="0 0 24 24"><g transform="translate(1 3)"><path d="M14.6,18a.747.747,0,1,1,0-1.493h1.593a2.44,2.44,0,0,0,2.462-2.414v-3.56H16.032v.992a2.269,2.269,0,0,1-2.27,2.266H8.238a2.269,2.269,0,0,1-2.269-2.266v-.992H3.346V14.1A2.437,2.437,0,0,0,5.8,16.506H7.428a.747.747,0,1,1,0,1.493H5.8a3.946,3.946,0,0,1-3.974-3.9V10.534H.762a.746.746,0,1,1,0-1.492H21.239a.746.746,0,1,1,0,1.492H20.177v3.56A3.95,3.95,0,0,1,16.194,18ZM6.24,7.523a.278.278,0,0,1-.27-.269V6.008A2.268,2.268,0,0,1,8.239,3.743h5.524a2.26,2.26,0,0,1,2.27,2.265V7.254a.28.28,0,0,1-.273.269Zm12.415-1.76V3.906a2.44,2.44,0,0,0-2.461-2.413H14.6a.754.754,0,0,1-.761-.745A.755.755,0,0,1,14.6,0h1.593a3.948,3.948,0,0,1,3.983,3.906V5.763a.761.761,0,0,1-1.522,0Zm-16.831,0V3.9A3.945,3.945,0,0,1,5.8,0h1.63a.755.755,0,0,1,.761.747.753.753,0,0,1-.761.746H5.8A2.436,2.436,0,0,0,3.347,3.9V5.762a.762.762,0,0,1-1.524,0Z" fill="#2196F3"/></g></svg>